<svg width="15" height="15" viewBox="0 0 15 15" fill="none" xmlns="http://www.w3.org/2000/svg">
<path fill-rule="evenodd" clip-rule="evenodd" d="M12.5 0.625C13.5356 0.625 14.375 1.46447 14.375 2.5V12.5C14.375 13.5356 13.5356 14.375 12.5 14.375H2.5C1.46447 14.375 0.625 13.5356 0.625 12.5V2.5C0.625 1.46447 1.46447 0.625 2.5 0.625H12.5ZM12.5 1.875C12.8452 1.875 13.125 2.15483 13.125 2.5V12.5C13.125 12.8452 12.8452 13.125 12.5 13.125H9.375V8.74994H10.6726C10.9416 8.74994 11.1804 8.57781 11.2656 8.32256L11.5424 7.49194C11.6436 7.18837 11.4177 6.87494 11.0977 6.87494H9.375V5.62495C9.375 5.31245 9.6875 4.99995 10 4.99995H11.25C11.5952 4.99995 11.875 4.72012 11.875 4.37495V3.94621C11.875 3.74432 11.7461 3.56331 11.5508 3.51179C10.7316 3.29559 10 3.29559 10 3.29559C8.4375 3.29559 7.5 4.37495 7.5 5.31245V6.87494H6.25C5.90483 6.87494 5.625 7.15475 5.625 7.49994V8.12494C5.625 8.47013 5.90482 8.74994 6.25 8.74994H7.5V13.125H2.5C2.15483 13.125 1.875 12.8452 1.875 12.5V2.5C1.875 2.15483 2.15483 1.875 2.5 1.875H12.5Z" fill="#FFECCA"/>
</svg>
