<svg width="24" height="24" viewBox="0 0 24 24" fill="none" xmlns="http://www.w3.org/2000/svg">
<mask id="mask0_204_240" style="mask-type:luminance" maskUnits="userSpaceOnUse" x="0" y="0" width="24" height="24">
<path d="M24 0H0V24H24V0Z" fill="white"/>
</mask>
<g mask="url(#mask0_204_240)">
<path d="M12 2.16094C15.2063 2.16094 15.586 2.175 16.8469 2.23125C18.0188 2.28281 18.6516 2.47969 19.0735 2.64375C19.6313 2.85938 20.0344 3.12188 20.4516 3.53906C20.8735 3.96094 21.1313 4.35938 21.3469 4.91719C21.511 5.33905 21.7078 5.97655 21.7594 7.14375C21.8157 8.40935 21.8297 8.78905 21.8297 11.9907C21.8297 15.1969 21.8157 15.5766 21.7594 16.8375C21.7078 18.0094 21.511 18.6422 21.3469 19.0641C21.1313 19.6219 20.8688 20.025 20.4516 20.4422C20.0297 20.8641 19.6313 21.1219 19.0735 21.3375C18.6516 21.5016 18.0141 21.6985 16.8469 21.75C15.5813 21.8063 15.2016 21.8203 12 21.8203C8.79376 21.8203 8.41405 21.8063 7.15315 21.75C5.98125 21.6985 5.34845 21.5016 4.92657 21.3375C4.36875 21.1219 3.96563 20.8594 3.54844 20.4422C3.12657 20.0203 2.86875 19.6219 2.65313 19.0641C2.48907 18.6422 2.29219 18.0047 2.24063 16.8375C2.18438 15.5719 2.17032 15.1922 2.17032 11.9907C2.17032 8.7844 2.18438 8.4047 2.24063 7.14375C2.29219 5.97185 2.48907 5.33905 2.65313 4.91719C2.86875 4.35938 3.13125 3.95625 3.54844 3.53906C3.97032 3.11719 4.36875 2.85938 4.92657 2.64375C5.34845 2.47969 5.98595 2.28281 7.15315 2.23125C8.41405 2.175 8.79376 2.16094 12 2.16094ZM12 0C8.7422 0 8.3344 0.0140625 7.0547 0.0703125C5.7797 0.126563 4.90313 0.332813 4.14375 0.628125C3.35157 0.9375 2.68125 1.34531 2.01563 2.01563C1.34532 2.68125 0.937501 3.35157 0.628125 4.13907C0.332813 4.90313 0.126563 5.775 0.0703125 7.05C0.0140625 8.33435 0 8.7422 0 12C0 15.2578 0.0140625 15.6657 0.0703125 16.9453C0.126563 18.2203 0.332813 19.0969 0.628125 19.8563C0.937501 20.6485 1.34532 21.3188 2.01563 21.9844C2.68125 22.65 3.35157 23.0625 4.13907 23.3672C4.90313 23.6625 5.775 23.8688 7.05 23.925C8.32971 23.9813 8.7375 23.9953 11.9953 23.9953C15.2532 23.9953 15.661 23.9813 16.9407 23.925C18.2157 23.8688 19.0922 23.6625 19.8516 23.3672C20.6391 23.0625 21.3094 22.65 21.975 21.9844C22.6407 21.3188 23.0532 20.6485 23.3578 19.861C23.6532 19.0969 23.8594 18.225 23.9157 16.95C23.9719 15.6703 23.986 15.2625 23.986 12.0047C23.986 8.7469 23.9719 8.33905 23.9157 7.0594C23.8594 5.7844 23.6532 4.90782 23.3578 4.14844C23.0625 3.35156 22.6547 2.68125 21.9844 2.01563C21.3188 1.35 20.6485 0.9375 19.861 0.63281C19.0969 0.3375 18.225 0.13125 16.95 0.075C15.6657 0.0140625 15.2578 0 12 0Z" fill="white"/>
<path d="M12 5.83594C8.59689 5.83594 5.83594 8.59689 5.83594 12C5.83594 15.4031 8.59689 18.164 12 18.164C15.4031 18.164 18.164 15.4031 18.164 12C18.164 8.59689 15.4031 5.83594 12 5.83594ZM12 15.9984C9.79219 15.9984 8.00154 14.2078 8.00154 12C8.00154 9.79219 9.79219 8.00154 12 8.00154C14.2078 8.00154 15.9984 9.79219 15.9984 12C15.9984 14.2078 14.2078 15.9984 12 15.9984Z" fill="white"/>
<path d="M19.8468 5.59141C19.8468 6.38831 19.2 7.03046 18.4078 7.03046C17.611 7.03046 16.9688 6.38361 16.9688 5.59141C16.9688 4.79453 17.6157 4.15234 18.4078 4.15234C19.2 4.15234 19.8468 4.79922 19.8468 5.59141Z" fill="white"/>
</g>
</svg>
