<svg width="15" height="16" viewBox="0 0 15 16" fill="none" xmlns="http://www.w3.org/2000/svg">
<mask id="mask0_204_279" style="mask-type:luminance" maskUnits="userSpaceOnUse" x="0" y="0" width="15" height="16">
<path d="M15 0.5H0V15.5H15V0.5Z" fill="white"/>
</mask>
<g mask="url(#mask0_204_279)">
<path d="M7.5 1.85058C9.50391 1.85058 9.74122 1.85938 10.5293 1.89453C11.2617 1.92676 11.6572 2.04981 11.9209 2.15234C12.2695 2.28711 12.5215 2.45117 12.7822 2.71191C13.0459 2.97559 13.207 3.22461 13.3418 3.57324C13.4443 3.83691 13.5674 4.23534 13.5996 4.96484C13.6348 5.75584 13.6436 5.99316 13.6436 7.99416C13.6436 9.99806 13.6348 10.2353 13.5996 11.0234C13.5674 11.7559 13.4443 12.1514 13.3418 12.415C13.207 12.7637 13.043 13.0156 12.7822 13.2764C12.5186 13.54 12.2695 13.7012 11.9209 13.8359C11.6572 13.9385 11.2588 14.0615 10.5293 14.0938C9.73828 14.1289 9.50097 14.1377 7.5 14.1377C5.49609 14.1377 5.25878 14.1289 4.47072 14.0938C3.73828 14.0615 3.34278 13.9385 3.0791 13.8359C2.73047 13.7012 2.47852 13.5371 2.21777 13.2764C1.9541 13.0127 1.79297 12.7637 1.6582 12.415C1.55567 12.1514 1.43262 11.7529 1.40039 11.0234C1.36523 10.2324 1.35645 9.99512 1.35645 7.99416C1.35645 5.99025 1.36523 5.75294 1.40039 4.96484C1.43262 4.23241 1.55567 3.83691 1.6582 3.57324C1.79297 3.22461 1.95703 2.97266 2.21777 2.71191C2.48145 2.44824 2.73047 2.28711 3.0791 2.15234C3.34278 2.04981 3.74122 1.92676 4.47072 1.89453C5.25878 1.85938 5.49609 1.85058 7.5 1.85058ZM7.5 0.5C5.46387 0.5 5.209 0.508789 4.40919 0.543945C3.61231 0.579102 3.06445 0.708008 2.58984 0.892578C2.09473 1.08594 1.67578 1.34082 1.25977 1.75977C0.840822 2.17578 0.585938 2.59473 0.392578 3.08692C0.208008 3.56445 0.0791016 4.10938 0.0439453 4.90625C0.00878906 5.70897 0 5.96387 0 8C0 10.0361 0.00878906 10.291 0.0439453 11.0908C0.0791016 11.8877 0.208008 12.4356 0.392578 12.9102C0.585938 13.4053 0.840822 13.8242 1.25977 14.2402C1.67578 14.6562 2.09473 14.9141 2.58692 15.1045C3.06445 15.2891 3.60938 15.418 4.40625 15.4531C5.20606 15.4883 5.46094 15.4971 7.49706 15.4971C9.53322 15.4971 9.78809 15.4883 10.5879 15.4531C11.3848 15.418 11.9326 15.2891 12.4072 15.1045C12.8994 14.9141 13.3184 14.6562 13.7344 14.2402C14.1504 13.8242 14.4082 13.4053 14.5986 12.9131C14.7832 12.4356 14.9121 11.8906 14.9473 11.0938C14.9824 10.2939 14.9912 10.0391 14.9912 8.00294C14.9912 5.96681 14.9824 5.71191 14.9473 4.91213C14.9121 4.11525 14.7832 3.56738 14.5986 3.09277C14.4141 2.59472 14.1592 2.17578 13.7402 1.75977C13.3242 1.34375 12.9053 1.08594 12.4131 0.895506C11.9356 0.710938 11.3906 0.582031 10.5938 0.546875C9.79103 0.508789 9.53613 0.5 7.5 0.5Z" fill="#FFECCA"/>
<path d="M7.49999 4.14746C5.37305 4.14746 3.64746 5.87305 3.64746 7.99999C3.64746 10.1269 5.37305 11.8525 7.49999 11.8525C9.62693 11.8525 11.3525 10.1269 11.3525 7.99999C11.3525 5.87305 9.62693 4.14746 7.49999 4.14746ZM7.49999 10.499C6.12012 10.499 5.00096 9.37987 5.00096 7.99999C5.00096 6.62012 6.12012 5.50096 7.49999 5.50096C8.87987 5.50096 9.99902 6.62012 9.99902 7.99999C9.99902 9.37987 8.87987 10.499 7.49999 10.499Z" fill="#FFECCA"/>
<path d="M12.4043 3.99512C12.4043 4.49318 12 4.89453 11.5049 4.89453C11.0068 4.89453 10.6055 4.49024 10.6055 3.99512C10.6055 3.49707 11.0098 3.0957 11.5049 3.0957C12 3.0957 12.4043 3.5 12.4043 3.99512Z" fill="#FFECCA"/>
</g>
</svg>
