<svg width="15" height="16" viewBox="0 0 15 16" fill="none" xmlns="http://www.w3.org/2000/svg">
<path d="M1.25 5.5L1.875 3.3125L2.8125 2.375H11.25L13.4375 3.9375L13.75 11.125L11.5625 13.3125H3.125L1.25 11.4375V5.5Z" fill="#FFECCA"/>
<path fill-rule="evenodd" clip-rule="evenodd" d="M7.36082 8.91543C6.9427 8.91543 6.52582 8.77731 6.17707 8.50106L3.37395 6.24106C3.17207 6.07856 3.14082 5.78293 3.3027 5.58168C3.46582 5.38106 3.76082 5.34918 3.96207 5.51106L6.7627 7.76856C7.11458 8.04731 7.6102 8.04731 7.96457 7.76606L10.7371 5.51231C10.9383 5.34793 11.2333 5.37918 11.3971 5.58043C11.5602 5.78106 11.5296 6.07606 11.329 6.23981L8.55145 8.49731C8.2002 8.77606 7.7802 8.91543 7.36082 8.91543" fill="#680000"/>
<mask id="mask0_204_292" style="mask-type:luminance" maskUnits="userSpaceOnUse" x="0" y="1" width="15" height="14">
<path fill-rule="evenodd" clip-rule="evenodd" d="M0.625 1.75H14.0624V13.9375H0.625V1.75Z" fill="white" stroke="white" stroke-width="0.5"/>
</mask>
<g mask="url(#mask0_204_292)">
<path fill-rule="evenodd" clip-rule="evenodd" d="M4.27438 13H10.4119C10.4131 12.9987 10.4181 13 10.4219 13C11.135 13 11.7675 12.745 12.2525 12.2606C12.8156 11.7 13.125 10.8944 13.125 9.9925V5.7C13.125 3.95438 11.9838 2.6875 10.4119 2.6875H4.27563C2.70375 2.6875 1.5625 3.95438 1.5625 5.7V9.9925C1.5625 10.8944 1.8725 11.7 2.435 12.2606C2.92 12.745 3.55312 13 4.26562 13H4.27438ZM4.26375 13.9375C3.29938 13.9375 2.43813 13.5875 1.77313 12.925C1.0325 12.1862 0.625 11.145 0.625 9.9925V5.7C0.625 3.44813 2.19438 1.75 4.27563 1.75H10.4119C12.4931 1.75 14.0625 3.44813 14.0625 5.7V9.9925C14.0625 11.145 13.655 12.1862 12.9144 12.925C12.25 13.5869 11.3881 13.9375 10.4219 13.9375H10.4119H4.27563H4.26375Z" fill="#FFECCA"/>
</g>
</svg>
